<?xml version="1.0" encoding="utf-8"?>
<svg xmlns="http://www.w3.org/2000/svg" xmlns:xlink="http://www.w3.org/1999/xlink" version= "1.1" width="720px" height="1424px" viewBox="0 0 720 1424">
<g id="layer1">
<g>
<g style="fill:rgb(0,0,0); fill-opacity:1.0; stroke-linejoin: miter">
<path d="M347.63736,366.05246C335.12997,366.56433,320.88208,368.45844,309.6715,371.10318C304.8767,372.2294,298.80215,373.8505,295.9355,374.75476C278.88925,380.1126,265.81876,385.91412,250.71773,394.8041C245.0186,398.16565,235.94095,404.35968,230.24179,408.77914C219.4066,417.1743,207.78648,428.2996,199.34015,438.33282C185.45058,454.8502,174.64948,472.4082,166.59557,491.55328C157.51788,513.13837,152.48422,534.89404,150.94849,559.29456C150.6755,563.69684,150.6755,577.74,150.9485,581.98883C152.22827,601.4751,155.3338,617.65125,161.13533,635.05585C168.71144,657.8353,180.16093,678.8915,195.33023,697.9341C205.17578,710.305,217.88794,722.8295,230.24179,732.33374C241.96428,741.3602,252.73125,748.0661,265.81882,754.482C280.08377,761.46094,294.57056,766.597,310.0129,770.112C319.94373,772.3815,330.8984,774.0025,340.69272,774.6509L342.43314,774.7703L342.43314,789.24005L342.43314,803.72675L338.03082,803.72675C334.6694,803.72675,333.3896,803.79504,332.62177,803.9828C329.12378,804.87006,326.22305,807.56604,325.07977,810.9787C324.61908,812.32666,324.61908,812.3779,324.56787,817.8893C324.53375,820.9437,324.4484,886.8592,324.346,964.37787C324.20956,1087.7456,324.20956,1105.4746,324.43137,1106.5154C324.7385,1107.9829,325.79645,1110.167,326.75198,1111.259C327.65634,1112.2998,329.0214,1113.3237,330.3865,1113.9551C332.62177,1115.013,331.83685,1114.9788,355.36722,1114.9275L376.81577,1114.8765L377.95905,1114.4326C379.66537,1113.7673,380.89392,1112.9653,382.08832,1111.7197C383.28278,1110.4741,383.93118,1109.4673,384.56253,1107.8123L384.9891,1106.686L385.10858,1079.2141C385.15973,1064.0958,385.24503,997.839,385.27914,931.9575L385.34744,812.17303L384.95496,811.0469C383.84583,807.839,381.457,805.45013,378.232,804.27277C377.02054,803.8291,376.86694,803.8121,372.22574,803.76086L367.4651,803.69257L367.5845,802.15686C367.6357,801.3037,367.6869,794.7856,367.6869,787.68726L367.6869,774.7874L370.72412,774.58264C374.22214,774.3607,378.50504,773.9,383.8117,773.1663C387.44623,772.67145,388.47,772.5008,393.53784,771.56244C407.7516,768.9346,423.17682,764.1568,437.0493,758.0822C440.39368,756.6319,448.6694,752.6049,451.38245,751.1375C454.55624,749.4141,455.58005,748.8339,457.52524,747.70776C485.714,731.327,509.72205,708.42804,527.34845,681.1267C534.2762,670.3769,540.3166,658.7568,545.1114,646.91486C552.77277,627.9745,557.56757,607.7545,559.2227,587.5344C560.1271,576.35785,560.1271,564.5671,559.2057,553.5783C555.8783,513.3259,540.5554,474.8653,515.2163,443.1787C499.8423,423.9483,481.08978,407.55057,460.23828,395.06006C443.0896,384.78784,426.04333,377.63846,406.2328,372.38297C401.8475,371.22256,394.52734,369.68704,389.18655,368.79968C385.65442,368.20248,383.9481,367.9635,378.43668,367.24692C371.08237,366.29132,356.15195,365.71124,347.63736,366.05246 Z M366.919,419.35834C383.1121,420.65524,397.59885,424.03372,412.3586,429.9718C429.8144,437.0017,445.66623,447.15445,459.47046,460.13962C462.06412,462.59665,462.21765,462.7332,464.91367,465.5657C471.44897,472.42526,476.44852,478.6704,481.68698,486.5195C495.5936,507.42215,504.0058,531.3449,506.3094,556.6497C506.9748,563.7822,507.09427,574.9587,506.59946,581.3063C505.13196,599.7859,501.2245,615.6719,494.17737,631.8138C482.23306,659.13214,461.8082,682.8843,436.53735,698.8214C414.76453,712.5744,390.09097,720.4747,364.27417,721.9763C360.70795,722.1811,349.83862,722.1982,346.69894,721.99335C341.6823,721.66925,336.71692,721.1914,333.56018,720.71356C332.67288,720.5771,331.17133,720.33826,330.23285,720.20166C318.13492,718.3418,303.46048,713.8371,291.5844,708.3427C284.62256,705.1348,278.63336,701.80743,271.97867,697.45636C236.06038,674.0284,211.67691,635.94305,205.32935,593.3359C204.1008,585.07733,203.79366,580.47015,203.79364,570.471C203.79364,560.65967,204.04958,556.7692,205.244,548.4423C210.67014,510.57886,230.44655,476.05978,260.4439,452.05164C272.78064,442.18903,286.61902,434.3058,301.48117,428.67487C315.3707,423.41934,330.69357,420.14322,345.2486,419.29013C347.04025,419.18765,348.9172,419.08533,349.42908,419.05115C351.86914,418.8976,363.79642,419.11948,366.919,419.35834 Z"/>
</g>
<g style="fill:rgb(0,0,0); fill-opacity:1.0; stroke-linejoin: miter">
<path d="M293.888,497.6278C260.3756,527.3009,232.71596,551.7866,232.40881,552.05963L231.84572,552.5545L238.29565,559.80646C241.82779,563.79926,244.79677,567.0412,244.86505,567.0242C244.93327,566.99005,269.57275,545.2004,299.62125,518.5986C329.6698,491.9969,354.49695,470.0193,354.80408,469.76343L355.3501,469.3027L410.53287,518.1891C440.87143,545.0636,465.7668,567.0412,465.83508,567.02423C466.1081,566.9219,478.61557,552.674,478.56433,552.5205C478.53024,552.418,450.90472,527.898,417.1705,498.03738C363.0798,450.14062,355.79373,443.7418,355.55484,443.96365C355.333,444.16837,355.26477,444.16837,355.0429,443.94662C354.83817,443.7248,347.0744,450.53302,293.888,497.6278 Z"/>
</g>
<g style="fill:rgb(0,0,0); fill-opacity:1.0; stroke-linejoin: miter">
<path d="M268.54895,482.52673C268.54892,505.39157,268.54892,505.66458,268.87317,505.44275C269.06085,505.30624,276.05682,499.02695,284.40082,491.46802L299.60422,477.732L299.60422,473.8074C299.60422,471.6574,299.6554,467.5281,299.7237,464.62738L299.82602,459.38898L284.19604,459.38898L268.54895,459.38898L268.54895,482.52673 Z"/>
</g>
<g style="fill:rgb(0,0,0); fill-opacity:1.0; stroke-linejoin: miter">
<path d="M311.9239,524.1101L268.54895,562.51965L268.58307,617.8901L268.63428,673.27765L269.00964,674.07965C269.52155,675.2059,270.63068,676.332,271.6715,676.7927L272.5588,677.2022L300.2355,677.25336L327.9293,677.2875L327.96344,652.51154L328.01465,627.71857L328.47537,626.8483C329.08966,625.688,330.31818,624.63007,331.4273,624.30585C332.1781,624.08405,335.35187,624.04987,355.6743,624.08405L379.03397,624.1352L379.7506,624.5275C380.87683,625.1248,381.6276,625.8756,382.13947,626.9164L382.61725,627.8891L382.66846,652.59686L382.7025,677.2874L410.39633,677.2533L438.07306,677.20215L438.85803,676.8438C439.933,676.349,440.9056,675.4276,441.40045,674.43787L441.82706,673.6189L441.87823,617.9925L441.9123,562.3659L399.1516,524.4855C375.63837,503.65115,356.135,486.40015,355.84497,486.14417L355.2989,485.7006L311.9239,524.1101 Z"/>
</g>
</g>
</g>
</svg>